<?xml version="1.0" encoding="UTF-8"?>
<svg id="Layer_1" xmlns="http://www.w3.org/2000/svg" xmlns:xlink="http://www.w3.org/1999/xlink" version="1.1" viewBox="0 0 200 200">
  <!-- Generator: Adobe Illustrator 29.1.0, SVG Export Plug-In . SVG Version: 2.1.0 Build 142)  -->
  <defs>
    <style>
      .st0 {
        fill: none;
      }

      .st1 {
        fill: #ffca33;
      }

      .st2 {
        fill: #fff;
      }

      .st3 {
        fill: url(#Nueva_muestra_de_degradado_3);
      }

      .st4 {
        fill: #00add3;
      }

      .st5 {
        fill: url(#Nueva_muestra_de_degradado_31);
      }

      .st6 {
        fill: url(#Nueva_muestra_de_degradado_32);
      }

      .st7 {
        clip-path: url(#clippath);
      }
    </style>
    <clipPath id="clippath">
      <circle class="st0" cx="100" cy="100" r="99"/>
    </clipPath>
    <linearGradient id="Nueva_muestra_de_degradado_3" data-name="Nueva muestra de degradado 3" x1="145.27" y1="-66.78" x2="250.45" y2="151.41" gradientUnits="userSpaceOnUse">
      <stop offset="0" stop-color="#b477b1"/>
      <stop offset=".14" stop-color="#ac74b0"/>
      <stop offset=".35" stop-color="#986dad"/>
      <stop offset=".6" stop-color="#7863a8"/>
      <stop offset=".88" stop-color="#4b54a2"/>
      <stop offset="1" stop-color="#364da0"/>
    </linearGradient>
    <linearGradient id="Nueva_muestra_de_degradado_31" data-name="Nueva muestra de degradado 3" x1="173.93" y1="-80.59" x2="279.1" y2="137.6" xlink:href="#Nueva_muestra_de_degradado_3"/>
    <linearGradient id="Nueva_muestra_de_degradado_32" data-name="Nueva muestra de degradado 3" x1="202.58" y1="-94.4" x2="307.75" y2="123.79" xlink:href="#Nueva_muestra_de_degradado_3"/>
  </defs>
  <g class="st7">
    <rect class="st4" x="1" y="-16.05" width="20.65" height="221.85"/>
    <rect class="st4" x="36.31" y="-16.05" width="20.65" height="221.85"/>
    <rect class="st4" x="71.62" y="-16.05" width="20.66" height="221.85"/>
    <rect class="st4" x="106.93" y="-16.05" width="20.65" height="221.85"/>
    <rect class="st4" x="142.25" y="-16.05" width="20.66" height="221.85"/>
    <rect class="st4" x="177.56" y="-16.05" width="23.97" height="221.85"/>
    <rect class="st3" x="212.87" y="-16.05" width="20.65" height="221.85"/>
    <rect class="st5" x="248.18" y="-16.05" width="20.65" height="221.85"/>
    <rect class="st6" x="283.49" y="-16.05" width="20.65" height="221.85"/>
  </g>
  <path class="st1" d="M191.04,61.15l-98.45,59.05-13.44-18.74L11.66,144.66c-1.44-2.79-2.73-5.68-3.89-8.66-4.36-11.14-6.75-23.26-6.75-35.98C1.01,45.33,45.31,1,100,1c37.52,0,70.17,20.88,86.93,51.64,1.51,2.76,2.89,5.59,4.11,8.51Z"/>
  <path class="st2" d="M184.18,47.9l.83-.49h-45.38l11,20.16-54.6,32.53-7.24-10.04c-3.55-4.92-10.33-6.21-15.44-2.93L5.79,130.49c1.68,5.19,3.77,10.19,6.24,14.97l67.12-42.96,13.44,18.74,98.84-59.27c-2.04-4.91-4.48-9.61-7.25-14.08Z"/>
</svg>