<svg
  xmlns="http://www.w3.org/2000/svg"
  viewBox="0 0 576 512"
  fill="currentColor"
>
  <path d="M549.655 124.083c-6.281-23.65-24.787-42.205-48.364-48.505C458.064 64 288 64 288 64s-170.064 0-213.291 11.578c-23.578 6.3-42.083 24.855-48.364 48.505C16 167.36 16 256 16 256s0 88.64 10.345 131.917c6.281 23.65 24.787 42.205 48.364 48.505C117.936 448 288 448 288 448s170.064 0 213.291-11.578c23.578-6.3 42.083-24.855 48.364-48.505C560 344.64 560 256 560 256s0-88.64-10.345-131.917zM232 336V176l142.857 80L232 336z"/>
</svg>
