<?xml version="1.0" encoding="UTF-8"?>
<svg xmlns="http://www.w3.org/2000/svg" viewBox="0 0 64 64">
  <g id="Layer_1"></g>
  <g id="Layer_2">
    <g>
      <path d="m27.0496655 48.4199219h-11.6748038c1.065341-1.5752678 4.0736246-6.0174942 5.1826181-7.6557655.3095112-.4660072.4910278-1.0065079.4872971-1.5717773.0000057.0000038.0000057-4.5200157.0000057-4.5200157.0470047-1.3139915-1.3721657-2.365799-2.6046448-1.9255257-1.542511.6095238-2.2407513 2.3049126-2.7684832 3.8580627-.4830112 1.6221504-1.7074986 3.074482-2.8094883 4.1197701.0010395-7.8172989-.0029116-23.5243435-.0019531-31.3247681h21.2958984v2.5053711c0 1.0854492-.7617188 1.96875-1.6982422 1.96875-.9365253 0-1.6982441-.8833008-1.6982441-1.96875-.0040417-1.3071089-1.995573-1.3078556-1.9999943.000062.1321964 5.2352476 7.2651024 5.233777 7.3964767-.0001745.0000038.0001125.0000038-2.5052586.0000038-2.5052586h5.5537109v17.6298828c0 .5522461.4472656 1 1 1s1-.4477539 1-1v-18.6298829c0-.5522461-.4472656-1-1-1h-6.5537109c.0556412-1.4330273.025753-3.1476717-1.0479584-4.2065086-2.2931786-2.5657113-6.4156322-.6619935-6.3484707 2.7749624-.0000572.5521517.4472084.9999056.9999428.9999056s1-.4477539 1-1c.0000012-1.0854492.7617199-1.9682617 1.6982453-1.9682617.9982948-.0071573 1.7169724.9877505 1.6982231 1.9682674.0000191-.0000057.0000191 1.4316349.0000191 1.4316349h-22.2958994c-.5527344 0-1 .4477539-1 1v15.7294312l-2.6660156 1.4732056c-.2021484.1118164-.3603516.2905273-.4453125.5048828l-3.4003906 8.5273438c-.0175781.0444336-.0322266.090332-.0439453.1367188l-2.277344 9.4667969c-.0380858.1621094-.0361327.3310547.0068359.4916992l2.277344 8.527832c.1162109.4379882.5126953.7421874.9658203.7421874h6.8115234c.4111328 0 .78125-.2519531.9316406-.6352539l1.1526489-2.9448242h12.876647c1.3067589-.0052414 1.3085518-1.9946366.0000001-2zm-14.3857413.4355469c-.0410156.0610352-.0761719.1269531-.1035156.1958008l-1.1542969 2.9487304h-5.3613281l-2.0136719-7.5405273 2.2011719-9.1503906 3.2421875-8.1289063 1.3857422-.7655029v16.4554443c.0008049.3749313.2115335.7283783.5527353.8984375.3398428.1704102.7421865.1352539 1.0458975-.0913086 1.5351563-1.1425781 4.2431631-3.5058594 5.1328115-6.496582.333662-1.0499687.7137737-1.8457603 1.4482422-2.5107422-.0508728.212059.1350079 4.9840813-.1376953 4.9697266-1.2915974 1.9083366-5.0038614 7.3933105-6.2382803 9.2158203z"></path>
      <path d="m60.9998627 42.1831055h-3.3564453c-.1894531-.5849609-.4267578-1.1601563-.7089844-1.7202148l2.3720703-2.3725586c.390625-.390625.390625-1.0234375 0-1.4140625l-3.9833984-3.9833984c-.375-.375-1.0390625-.375-1.4140625 0l-2.3720703 2.3720703c-.5595703-.2817383-1.1347656-.5185547-1.7207031-.7084961v-3.3564454c0-.5522461-.4472656-1-1-1h-5.6328125c-.5527344 0-1 .4477539-1 1v3.3564453c-.5859375.1899414-1.1611328.4267578-1.7207031.7084961l-2.3720703-2.3720703c-.3720093-.3872566-1.0420952-.3875198-1.4140625.0000114 0-.0000114-3.9833984 3.983387-3.9833984 3.983387-.390625.390625-.390625 1.0234375 0 1.4140625l2.3720703 2.3725586c-.2822266.5600586-.5195313 1.1352539-.7089844 1.7202148h-3.3564472c-.5527344 0-1 .4477539-1 1v5.6337891c0 .5522461.4472656 1 1 1h3.3564472c.1894531.5849609.4267578 1.159668.7089844 1.7202148l-2.3720705 2.3725587c-.390625.390625-.390625 1.0234375 0 1.4140625l3.9833984 3.9833984c.375.375 1.0390625.375 1.4140625 0l2.3720703-2.3720703c.5595703.2817383 1.1347656.5185547 1.7207031.7084961v3.3564453c0 .5522461.4472656 1 1 1h5.6328125c.5527344 0 1-.4477539 1-1v-3.3564453c.5859375-.1899414 1.1611328-.4267578 1.7207031-.7084961l2.3720703 2.3720703c.3720093.3872566 1.0420914.3875198 1.4140625-.0000114 0 .0000114 3.9833984-3.983387 3.9833984-3.983387.390625-.390625.390625-1.0234375 0-1.4140625 0 0-2.3720703-2.3725586-2.3720703-2.3725586.2822266-.5605469.5195313-1.1352539.7089844-1.7202148h3.3564453c.5527344 0 1-.4477539 1-1v-5.6337891c.0000002-.5522461-.4472655-1-.9999998-1zm-1 5.633789h-3.1083984c-.4580078 0-.8583984.3115234-.9697266.7558594-.2285156.9072266-.59375 1.7954102-1.0859375 2.640625-.2285156.3925781-.1640625.8896484.1572266 1.2104492l2.1923828 2.1928711-2.5693359 2.5693359-2.1923828-2.1928711c-.3212891-.3222656-.8183594-.3857422-1.2109375-.1567383-.8417969.4912109-1.7304688.8564453-2.640625 1.0854492-.4443359.1118164-.7558594.5117188-.7558594.9697266v3.1083985h-3.6328125v-3.1083984c0-.4580078-.3115234-.8579102-.7558594-.9697266-.9101563-.2290039-1.7988281-.5942383-2.640625-1.0854492-.3925781-.2290039-.8896484-.1655273-1.2109375.1567383l-2.1923828 2.1928711-2.5693359-2.5693359 2.1923828-2.1928711c.3212891-.3208008.3857422-.8178711.1572266-1.2104492-.4921875-.8452148-.8574219-1.7333984-1.0859375-2.640625-.1113281-.4443359-.5117188-.7558594-.9697266-.7558594h-3.1084003v-3.6337891h3.1084003c.4580078 0 .8583984-.3115234.9697266-.7558594.2285156-.9077148.59375-1.7963867 1.0859375-2.640625.2285156-.3920898.1640625-.8891602-.1572266-1.2104492l-2.1923828-2.1928711 2.5693359-2.5693359 2.1923828 2.1928711c.3212891.3222656.8183594.3857422 1.2109375.1567383.8417969-.4912109 1.7304688-.8564453 2.640625-1.0854492.4443359-.1118164.7558594-.5117188.7558594-.9697266v-3.1083985h3.6328125v3.1083984c0 .4580078.3115234.8579102.7558594.9697266.9101563.2290039 1.7988281.5942383 2.640625 1.0854492.3925781.2290039.8896484.1655273 1.2109375-.1567383l2.1923828-2.1928711 2.5693359 2.5693359-2.1923828 2.1928711c-.3212891.3212891-.3857422.8183594-.1572266 1.2104492.4921875.8442383.8574219 1.7329102 1.0859375 2.640625.1113281.4443359.5117188.7558594.9697266.7558594h3.1083984z"></path>
      <path d="m45.9998627 37.5c-4.6865234 0-8.5 3.8129883-8.5 8.5.4274521 11.2608414 16.5742569 11.2577782 17.0000114-.0001068-.0000114-4.6869049-3.813488-8.4998932-8.5000114-8.4998932zm0 15c-3.5839844 0-6.5-2.9160156-6.5-6.5.305378-8.6027603 12.6959152-8.6005554 13.0000038.0001068-.0000038 3.5838776-2.9160195 6.4998932-6.5000038 6.4998932z"></path>
      <path d="m17.9998608 22h7c1.3057079-.0051842 1.3094234-1.994503-.0000629-1.9999962.0000629-.0000038-6.9999371-.0000038-6.9999371-.0000038-1.3057061.0051842-1.3094216 1.994503 0 2z"></path>
      <path d="m17.9998608 27h15.0000019c1.3031235-.0046864 1.3114586-1.994442-.0000687-1.9999962.0000687-.0000038-14.9999332-.0000038-14.9999332-.0000038-1.3031254.0046864-1.3114586 1.994442 0 2z"></path>
    </g>
  </g>
</svg>
