<?xml version="1.0" encoding="UTF-8"?>
<svg xmlns="http://www.w3.org/2000/svg" id="Layer_1" viewBox="0 0 512 512">
  <path d="m53.11 326.417c9.045 0 16.403-7.358 16.403-16.403 0-1.625-.246-3.192-.688-4.676l27.581-18.831c2.782 2.171 6.27 3.479 10.064 3.479 5.186 0 9.809-2.426 12.817-6.195l24.185 9.173c-.015.286-.043.568-.043.857 0 9.045 7.358 16.403 16.402 16.403 9.045 0 16.404-7.358 16.404-16.403 0-1.912-.346-3.74-.95-5.448l28.496-21.617c2.667 1.877 5.909 2.99 9.411 2.99 9.045 0 16.403-7.358 16.403-16.403s-7.358-16.404-16.403-16.404-16.403 7.359-16.403 16.404c0 1.911.346 3.74.949 5.447l-28.497 21.618c-2.667-1.877-5.909-2.989-9.411-2.989-5.186 0-9.808 2.426-12.816 6.195l-24.184-9.173c.015-.286.043-.569.043-.858 0-9.045-7.358-16.403-16.403-16.403s-16.403 7.358-16.403 16.403c0 1.625.246 3.193.688 4.676l-27.581 18.831c-2.782-2.171-6.27-3.478-10.064-3.478-9.045 0-16.403 7.358-16.403 16.403s7.358 16.402 16.403 16.402zm160.082-79.48c3.531 0 6.403 2.873 6.403 6.404s-2.872 6.403-6.403 6.403-6.403-2.872-6.403-6.403 2.872-6.404 6.403-6.404zm-53.361 40.481c3.531 0 6.404 2.872 6.404 6.403s-2.873 6.403-6.404 6.403c-3.53 0-6.402-2.872-6.402-6.403s2.872-6.403 6.402-6.403zm-53.36-20.241c3.531 0 6.403 2.872 6.403 6.403s-2.872 6.404-6.403 6.404-6.403-2.873-6.403-6.404 2.871-6.403 6.403-6.403zm-53.361 36.433c3.531 0 6.403 2.872 6.403 6.403s-2.872 6.403-6.403 6.403-6.403-2.872-6.403-6.403 2.872-6.403 6.403-6.403zm202.89 187.39h-20.697v-184.909c0-5.516-4.487-10.002-10.002-10.002h-24.216c-5.516 0-10.003 4.486-10.003 10.002v184.909h-9.14v-139.8c0-5.516-4.487-10.003-10.003-10.003h-24.216c-5.515 0-10.002 4.487-10.002 10.003v139.8h-9.14v-162.354c0-5.516-4.487-10.003-10.003-10.003h-24.215c-5.516 0-10.003 4.487-10.003 10.003v162.354h-9.14v-121.757c0-5.515-4.486-10.002-10.002-10.002h-24.215c-5.516 0-10.003 4.487-10.003 10.002v121.757h-15c-2.762 0-5 2.238-5 5s2.238 5 5 5h240c2.762 0 5-2.238 5-5s-2.238-5-5-5zm-54.915-184.911 24.218.002v184.909h-24.221zm-53.361 45.108 24.219.003v139.8h-24.221zm-53.361-22.554 24.219.003v162.354h-24.222zm-53.36 40.598 24.218.002v121.757h-24.221zm450.834 71.05c.86-1.889 1.351-3.98 1.351-6.187v-5.94c0-8.272-6.73-15.003-15.003-15.003h-104.994c-8.272 0-15.003 6.73-15.003 15.003v5.94c0 6.202 3.783 11.537 9.163 13.819-.86 1.889-1.351 3.98-1.351 6.187v5.94c0 1.756.319 3.435.876 5.003h-3.685c-8.272 0-15.003 6.73-15.003 15.003v5.941c0 8.272 6.73 15.002 15.003 15.002h104.994c8.272 0 15.003-6.729 15.003-15.002v-5.941c0-1.756-.319-3.435-.876-5.003h3.685c8.272 0 15.003-6.73 15.003-15.003v-5.94c0-6.202-3.783-11.537-9.163-13.819zm-123.649-12.127c0-2.759 2.244-5.003 5.003-5.003h104.994c2.759 0 5.003 2.244 5.003 5.003v5.94c0 2.759-2.244 5.003-5.003 5.003h-97.183-7.812c-2.759 0-5.003-2.244-5.003-5.003v-5.94zm105 51.892v5.941c0 2.758-2.244 5.002-5.003 5.002h-104.994c-2.759 0-5.003-2.244-5.003-5.002v-5.941c0-2.759 2.244-5.003 5.003-5.003h104.994c2.759 0 5.003 2.245 5.003 5.003zm17.812-20.005c0 2.759-2.244 5.003-5.003 5.003h-17.812-87.183c-2.759 0-5.003-2.244-5.003-5.003v-5.94c0-2.759 2.244-5.003 5.003-5.003h104.994c2.759 0 5.003 2.244 5.003 5.003v5.94zm-57.5-165.619c2.762 0 5 2.238 5 5v3.418c4.843 1.23 9.106 4.229 11.924 8.527 1.514 2.31.869 5.409-1.44 6.923-2.312 1.513-5.409.868-6.923-1.44-1.901-2.901-5.102-4.633-8.561-4.633-5.638 0-10.225 4.587-10.225 10.225s4.587 10.225 10.225 10.225c11.152 0 20.225 9.072 20.225 20.225 0 9.427-6.482 17.367-15.225 19.599v3.421c0 2.762-2.238 5-5 5s-5-2.238-5-5v-3.419c-4.844-1.23-9.107-4.229-11.924-8.527-1.513-2.31-.867-5.409 1.442-6.923 2.312-1.513 5.41-.866 6.923 1.442 1.899 2.899 5.1 4.631 8.559 4.631 5.638 0 10.225-4.586 10.225-10.224s-4.587-10.225-10.225-10.225c-11.152 0-20.225-9.072-20.225-20.225 0-9.427 6.482-17.368 15.225-19.6v-3.42c0-2.761 2.238-5 5-5zm-366.783-12.925c.512 0 1.032-.079 1.546-.245 2.626-.854 4.063-3.674 3.211-6.301-5.761-17.735-8.905-36.208-9.38-54.983h84.343c.19 14.71 1.213 29.335 3.061 43.546.355 2.738 2.87 4.67 5.603 4.313 2.738-.355 4.67-2.864 4.313-5.603-1.793-13.786-2.787-27.978-2.977-42.257h94.563v92.73c-.256.003-.511 0-.768.003-2.761.039-4.968 2.309-4.93 5.07.039 2.737 2.27 4.93 4.999 4.93h.071c.209-.003.417 0 .627-.003v86.181c-.186-.005-.372-.007-.558-.012-2.777-.037-5.062 2.098-5.138 4.858-.077 2.761 2.099 5.061 4.858 5.138 1.953.055 3.917.082 5.837.082 45.008 0 87.48-14.278 123.127-41.34 12.299 16.7 32.088 27.562 54.373 27.562 37.22 0 67.5-30.28 67.5-67.5 0-30.916-20.9-57.026-49.308-64.989 5.498-18.668 8.285-38.059 8.285-57.71.003-112.473-91.501-203.977-203.975-203.977s-203.978 91.504-203.978 203.977c0 21.545 3.344 42.767 9.939 63.073.687 2.114 2.647 3.457 4.756 3.457zm-4.631-71.53c1.184-46.534 18.836-89.047 47.333-121.915 16.983 7.415 34.977 13.472 53.689 18.11-10.413 30.859-16.203 66.501-16.678 103.806h-84.344zm94.345 0c.477-36.616 6.195-71.498 16.46-101.526 25.097 5.487 51.359 8.472 78.109 8.802v92.724zm209.139 0c-.475-37.304-6.265-72.947-16.678-103.806 18.712-4.637 36.706-10.695 53.689-18.11 28.497 32.868 46.149 75.381 47.333 121.915h-84.344zm-10.001 0h-94.569v-92.724c26.75-.33 53.013-3.315 78.109-8.802 10.266 30.028 15.983 64.91 16.46 101.526zm-94.569-102.725v-86.004c24.147 2.364 46.902 21.807 64.539 55.358 3.695 7.028 7.071 14.504 10.119 22.361-23.997 5.152-49.09 7.962-74.658 8.285zm-10 0c-25.568-.323-50.661-3.134-74.658-8.286 3.048-7.856 6.424-15.333 10.119-22.361 17.637-33.55 40.392-52.994 64.539-55.357zm104.569 112.725c-.477 36.615-6.194 71.496-16.459 101.523-25.155-5.52-51.289-8.461-78.11-8.783v-92.74zm-19.907 111.001c-3.049 7.86-6.427 15.34-10.123 22.372-17.637 33.55-40.392 52.994-64.539 55.358v-85.993c25.635.306 50.612 3.076 74.662 8.263zm-39.041 73.767c14.074-10.323 26.914-26.091 37.77-46.742 4.081-7.762 7.783-16.046 11.103-24.758 6.931 1.703 13.779 3.613 20.54 5.723.206 10.861 2.982 21.1 7.756 30.135-23.112 17.706-49.268 29.742-77.169 35.642zm194.379-67.068c0 31.706-25.794 57.5-57.5 57.5s-57.5-25.794-57.5-57.5 25.794-57.5 57.5-57.5 57.5 25.793 57.5 57.5zm-57.5-67.5c-34.168 0-62.468 25.524-66.882 58.503-5.847-1.78-11.756-3.414-17.725-4.898 10.413-30.859 16.203-66.5 16.677-103.804h84.336c-.438 17.277-3.139 34.306-8.059 50.734-2.737-.34-5.519-.535-8.347-.535zm-38.077-189.917c-15.84 6.704-32.568 12.2-49.93 16.449-3.32-8.712-7.022-16.995-11.103-24.757-10.816-20.576-23.603-36.301-37.616-46.627 38.27 8.22 72.382 27.759 98.649 54.935zm-180.197-54.934c-14.014 10.325-26.8 26.051-37.616 46.627-4.081 7.762-7.782 16.045-11.103 24.757-17.362-4.249-34.09-9.746-49.93-16.449 26.267-27.177 60.379-46.716 98.649-54.935z"></path>
</svg>
