<?xml version="1.0" encoding="UTF-8"?>
<svg xmlns="http://www.w3.org/2000/svg" id="Image" viewBox="0 0 64 64" width="512" height="512">
  <path d="M6,49a1,1,0,0,0-1,1v3.48a1,1,0,0,0,2,0V51l7,.025A1.021,1.021,0,0,0,15,50a1,1,0,0,0-1-1Z"></path>
  <path d="M13,57.67V61H7A1,1,0,0,0,5,61.1V62a1,1,0,0,0,1,1h8a1,1,0,0,0,1-1V57.67A1,1,0,0,0,13,57.67Z"></path>
  <path d="M27,57.28V61H21V58.24a1,1,0,0,0-2,0V62a1,1,0,0,0,1,1h8a1,1,0,0,0,1-1V57.28A1,1,0,0,0,27,57.28Z"></path>
  <path d="M34,44.52a1,1,0,0,0,1-1V35h6v6.03a1,1,0,0,0,2,0V34a1,1,0,0,0-1-1H34a1,1,0,0,0-1,1v9.52A1,1,0,0,0,34,44.52Z"></path>
  <path d="M42,47.17a1,1,0,0,0-1,1V61H35V52.48a1,1,0,1,0-2,0V62a1,1,0,0,0,1,1h8a1,1,0,0,0,1-1V48.17A1,1,0,0,0,42,47.17Z"></path>
  <path d="M56,42.6a1,1,0,0,0-1,1V61H49V49.37a1,1,0,0,0-2,0V62a1,1,0,0,0,1,1h8a1,1,0,0,0,1-1V43.6A1,1,0,0,0,56,42.6Z"></path>
  <path d="M48,42.93a1,1,0,0,0,1-1V27h6v6.32a1,1,0,0,0,2,0V26a1,1,0,0,0-1-1H52V13H62a1,1,0,0,0,.8-1.6L60.32,8.094l2.387-2.387A1,1,0,0,0,62,4H51a1,1,0,0,0-1,1V25H48a1,1,0,0,0-1,1V41.93A1,1,0,0,0,48,42.93ZM52,6h7.586L58.293,7.293A1,1,0,0,0,58.2,8.6L60,11H52Z"></path>
  <path d="M62,31H59a1,1,0,0,0,0,2h.707L48.647,44.91,39.2,43.02a.993.993,0,0,0-.821.2L23.819,54.864l-7.467-2.8a1,1,0,0,0-.746.018l-14,6a1,1,0,0,0,.788,1.838l13.63-5.842,7.624,2.86a1,1,0,0,0,.977-.156L39.261,45.072,48.8,46.98a.991.991,0,0,0,.928-.3L61,34.546V35a1,1,0,0,0,2,0V32A1.012,1.012,0,0,0,62,31Z"></path>
  <path d="M23.73,19.316a1,1,0,0,0-1.414,1.414l.977.977A1,1,0,0,0,24,22h4a1,1,0,0,1,0,2H24.351a1.147,1.147,0,0,1-.367-.06l-1.806-.6a1,1,0,0,0-.633,1.9l1.807.6a3.172,3.172,0,0,0,1,.162H28a3,3,0,0,0,0-6H24.414Z"></path>
  <path d="M3.285,26.86a3.159,3.159,0,0,0,4.3-1.232L9.7,21.8l4.668-1.867a1,1,0,0,0-.742-1.858l-5,2a.994.994,0,0,0-.5.446L5.837,24.661a1.16,1.16,0,0,1-1.578.452,1,1,0,0,1-.381-1.372L6.954,18.4a1.159,1.159,0,0,1,.457-.44C11.835,15.59,15.515,14,16.565,14,17.3,14,20,15.125,20,17.09c0,2.01-2.119,6.8-2.936,8.472a1,1,0,0,0,.3,1.239l7.009,5.233a1.155,1.155,0,0,1,.454,1.093L23.692,41h-2L22,34.044a1,1,0,0,0-.86-1.034C16.242,32.325,11,30.55,11,29a17.763,17.763,0,0,1,.753-5.106,1,1,0,0,0-1.912-.589A19.828,19.828,0,0,0,9,29c0,3.659,7.508,5.3,10.961,5.854l-.274,6.209A.99.99,0,0,0,19,42v8.76a1,1,0,0,0,2,0V43h6v5.32a1,1,0,0,0,2,0V42a1,1,0,0,0-1-1H25.714l1.094-7.588a3.159,3.159,0,0,0-1.238-2.981l-6.352-4.743C20.062,23.87,22,19.439,22,17.09,22,13.732,18.19,12,16.565,12,14.6,12,9.4,14.626,6.469,16.192A3.127,3.127,0,0,0,5.221,17.4L2.145,22.743A3,3,0,0,0,3.285,26.86Z"></path>
  <path d="M15.371,35.071a1,1,0,0,0-1.3.557L12.187,40.34,7.854,43.229a1.167,1.167,0,0,1-1.433-.107,1.115,1.115,0,0,1-.062-1.587l3.275-3.467a.986.986,0,0,0,.224-.379l1.093-3.381a1,1,0,1,0-1.9-.616L8.025,36.859l-3.12,3.3a3.115,3.115,0,0,0,.17,4.438,3.161,3.161,0,0,0,3.888.292l4.592-3.061a1,1,0,0,0,.374-.46l2-5A1,1,0,0,0,15.371,35.071Z"></path>
  <path d="M22.561,12A4.82,4.82,0,0,0,27,6.966C27,3.073,24.3,1,22.351,1,18.675,1,17,3.5,17,5.812,17,9.4,19.339,12,22.561,12Zm-.21-9C23.245,3,25,4.2,25,6.966A2.85,2.85,0,0,1,22.561,10C20.431,10,19,8.317,19,5.812,19,4.453,19.88,3,22.351,3Z"></path>
</svg>
