<?xml version="1.0" encoding="UTF-8"?>
<svg xmlns="http://www.w3.org/2000/svg" id="_x33_0" version="1.1" viewBox="0 0 512 512">
  <path d="M40,344h16v16h-16v-16Z"></path>
  <path d="M72,344h16v16h-16v-16Z"></path>
  <path d="M104,344h16v16h-16v-16Z"></path>
  <path d="M40,296h16v16h-16v-16Z"></path>
  <path d="M72,296h16v16h-16v-16Z"></path>
  <path d="M104,296h16v16h-16v-16Z"></path>
  <path d="M40,248h16v16h-16v-16Z"></path>
  <path d="M72,248h16v16h-16v-16Z"></path>
  <path d="M104,248h16v16h-16v-16Z"></path>
  <path d="M491.6,394.3c8.1-15.9,12.4-33.4,12.4-51.4,0-27-9.7-53.1-27.2-73.6l-68.8-80.2v-26.6l1.3-2c9.6-14.4,14.7-31.1,14.7-48.4v-3.3l-2.3-2.3c-1.9-1.9-19.8-18.3-69.7-18.3h-8v8c0,2.7,0,5.4.2,8.1-13.4.6-25.3,8.2-31.4,20.3l-1.8,3.6,16.9,33.9v27.2l-16,18.7v-38.3l-32-6v-75.4h-16v72.4l-16-3v-37.4h-16v34.4l-16-3v-78l-48-9V8h-16v53.4l-16-3V24h-16v31.4l-48-9v159l-16,3v-40.4h-16v43.4l-32,6v286.6h397.6c13.3,0,26.2-2.7,38.4-7.9,27.1-11.6,47.3-34.5,55.4-62.8l3.8-13.2c.6-2,.8-4,.8-6.1,0-8.7-5.1-16.2-12.4-19.7h0ZM488,342.9c0,17.9-4.9,35.2-14.2,50.4-5.5,1.6-10.6,4.7-14.4,9.2l-14.4,17.3c-10.7,12.8-26.3,20.1-43,20.1h-53c-2.8,0-5-2.2-5-5s1.8-4.5,4.2-4.9l21.4-3.6c13-2.2,22.5-13.3,22.5-26.5s-10.8-24-24-24h-24c-26.4,0-52.5,8.4-74,23.7l-3.9-.5c-11.8-16.5-18.1-35.9-18.1-56.3s8.3-45.6,23.4-63.2l68.3-79.7h56.6l68.3,79.7c15.1,17.6,23.4,40,23.4,63.2h0ZM392,168v16h-48v-16h48ZM407.9,115.9c-.7,12.7-4.8,25-11.9,35.6l-.3.5h-22.7c-7.3-14.9-11.7-31.3-12.7-47.8,28,1.2,42.3,8.3,47.6,11.7h0ZM345.9,120h.2c1.9,11,5,21.8,9.3,32h-14.5l-11.8-23.6c3.9-5.2,10-8.4,16.8-8.4ZM296,226.4l-18.5,21.6h-13.5v15.7l-4.8,5.6c-7,8.1-12.6,17.1-17,26.7h-10.2v16h4.4c-2.8,10-4.4,20.4-4.4,30.9,0,19.1,4.7,37.3,13.6,53.8l-61.6-7.7v-227.3l112,21v43.7ZM88,65.6l112,21v61.7l-32-6v244.6l-16-2v-194.6l-64,12V65.6ZM136,209.6v173.3l-112-14v-138.3l112-21ZM24,385.1l192,24v78.9H24v-102.9ZM232,488v-76.9l32,4v72.9h-32ZM487.8,415.7l-3.8,13.2c-6.8,23.7-23.6,42.8-46.3,52.5-10.2,4.4-21,6.6-32.1,6.6h-125.6v-75.9c18.7-13,41.2-20.1,64-20.1h24c4.4,0,8,3.6,8,8s-3.8,9.9-9.1,10.7l-21.4,3.6c-10.2,1.7-17.5,10.4-17.5,20.7s9.4,21,21,21h53c21.4,0,41.6-9.4,55.3-25.9l14.4-17.3c2.5-3,6.3-4.8,10.2-4.8s6,2.7,6,6,0,1.1-.2,1.7h0Z"></path>
  <path d="M200,296h16v16h-16v-16Z"></path>
  <path d="M200,344h16v16h-16v-16Z"></path>
  <path d="M232,248h16v16h-16v-16Z"></path>
  <path d="M200,248h16v16h-16v-16Z"></path>
  <path d="M264,200h16v16h-16v-16Z"></path>
  <path d="M232,200h16v16h-16v-16Z"></path>
  <path d="M200,200h16v16h-16v-16Z"></path>
  <path d="M104,152h16v16h-16v-16Z"></path>
  <path d="M168,104h16v16h-16v-16Z"></path>
  <path d="M136,104h16v16h-16v-16Z"></path>
  <path d="M104,104h16v16h-16v-16Z"></path>
  <path d="M136,152h16v16h-16v-16Z"></path>
  <path d="M321,252.1c0-4.1,3.3-7.4,7.4-7.4h79.2c4.1,0,7.4,3.3,7.4,7.4s-3.3,7.4-7.4,7.4h-11.9c2.3,3.4,3.9,7.5,4.8,12.2h4.2c4.1,0,7.4,3.3,7.4,7.4s-3.3,7.4-7.4,7.4h-4.1c-.8,5-2.6,9.4-5.2,13.3-3.8,5.7-9.3,9.8-15.4,12.6-8.1,3.7-18,5.6-28.5,6.4,11.3,12,24.9,22.3,40.6,30.6,3.6,1.9,5,6.4,3.1,10-1.9,3.6-6.4,5-10,3.1-22.3-11.7-41-27.4-55.2-46.1-1.7-2.2-2-5.3-.7-7.8,1.3-2.5,3.8-4.1,6.6-4.1,15.9,0,29-1.4,37.8-5.5,4.3-2,7.3-4.4,9.3-7.4,1-1.4,1.8-3.1,2.3-5.1h-54.6c-4.1,0-7.4-3.3-7.4-7.4s3.3-7.4,7.4-7.4h54.5c-1.2-3.6-3.2-6-5.5-7.8-3.9-3-9.4-4.4-14.6-4.4h-36.7c-4.1,0-7.4-3.3-7.4-7.4Z"></path>
</svg>
