<?xml version="1.0" encoding="UTF-8"?>
<svg xmlns="http://www.w3.org/2000/svg" id="Layer_1" version="1.1" viewBox="0 0 512 512">
  <path d="M326.8,245.5c-4.7-7-12-11.8-20.3-13.5-8.4-1.6-16.9,0-23.9,4.8-7.2,4.8-12.2,12.5-13.8,21.1-1.5,8.3.4,16.6,5.2,23.3l22.9,31.7-38,29.9H127.7l-38.1-29.9,22.9-31.7c4.8-6.7,6.7-15,5.2-23.3-1.5-8.6-6.6-16.3-13.8-21.1-7-4.7-15.5-6.4-23.9-4.8-8.4,1.6-15.6,6.4-20.3,13.4l-38.2,55.6c-5.1,6.7-7.4,14.9-6.3,23.3,1,8.5,5.3,16,12,21.2l78.5,61.1v84.4c0,3.3,2.7,6,6,6h163c3.3,0,6-2.7,6-6v-84.4l78.5-61.1c13.8-10.7,16.3-30.6,5.7-44.5l-38.2-55.5ZM351.9,336l-80.9,62.9c-1.5,1.1-2.3,2.9-2.3,4.7v81.4H117.8v-81.4c0-1.9-.8-3.6-2.3-4.7l-80.8-62.9c-8.6-6.7-10.2-19.2-3.5-27.8,0,0,.1-.2.2-.3l38.3-55.8c2.9-4.4,7.4-7.4,12.7-8.4s10.5,0,14.9,3c4.5,3,7.7,7.9,8.6,13.3.9,5.1-.2,10.1-3.1,14.1l-26.3,36.4c-1.9,2.6-1.4,6.2,1.2,8.2l44.2,34.8c1.1.8,2.4,1.3,3.7,1.3h135.3c1.4,0,2.6-.5,3.7-1.3l44.2-34.8c2.5-2,3-5.6,1.1-8.2l-26.3-36.4c-2.9-4-4-9-3.1-14.1,1-5.4,4.1-10.2,8.6-13.3,4.4-2.9,9.7-4,14.9-3s9.7,4,12.7,8.4l38.3,55.7c0,.1.1.2.2.3,6.7,8.6,5.2,21.1-3.5,27.8h0ZM126.3,257.3c0,36.9,30,67,67,67s67-30,67-67-30-67-67-67c-36.9,0-67,30-67,67h0ZM193.3,202.3c30.3,0,55,24.7,55,55s-24.7,55-55,55-55-24.7-55-55,24.6-55,55-55h0ZM395.8,15c-55.8,0-101.2,45.4-101.2,101.2s4.2,33.6,12.3,48.3l-12.2,46.2c-.5,2.1,0,4.3,1.5,5.8,1.1,1.1,2.7,1.8,4.3,1.8s1,0,1.5-.2l47-12.1c14.4,7.5,30.6,11.5,46.9,11.5,55.8,0,101.2-45.4,101.2-101.2S451.6,15,395.8,15ZM395.8,205.5c-15.1,0-30.1-3.9-43.2-11.1-.9-.5-1.9-.8-2.9-.8s-1,0-1.5.2l-39.4,10.2,10.2-38.6c.4-1.5.2-3.2-.6-4.5-7.8-13.5-11.9-28.9-11.9-44.5,0-49.2,40-89.2,89.2-89.2s89.2,40,89.2,89.2-40,89.2-89.2,89.2h0ZM228.1,166.9l12-16.6-5-.7c-2.1-.3-3.8-1.6-4.7-3.5-.8-1.9-.6-4.1.5-5.8l18.9-27.4c1.9-2.7,5.6-3.4,8.3-1.6,2.7,1.9,3.4,5.6,1.5,8.3l-13.3,19.4,5.2.7c2.1.3,3.9,1.6,4.7,3.6s.6,4.2-.6,5.9l-17.8,24.8c-1.2,1.6-3,2.5-4.9,2.5s-2.4-.4-3.5-1.1c-2.7-1.9-3.3-5.7-1.4-8.4h0ZM74.1,150.9c1.7-2.8,5.4-3.7,8.2-2l28.5,17.2c1.8,1.1,2.9,3,2.9,5.1s-1.1,4-2.8,5.1l-4.3,2.7,17.8,10.2c2.9,1.7,3.8,5.3,2.2,8.2-1.1,1.9-3.1,3-5.2,3s-2.1-.3-3-.8l-26.4-15.2c-1.8-1.1-3-3-3-5.1s1-4.1,2.8-5.2l4.5-2.8-20.1-12.2c-2.8-1.7-3.7-5.4-2-8.2ZM126.9,119.6c-1.9-2.7-1.2-6.5,1.6-8.3,2.7-1.9,6.5-1.2,8.3,1.6l18.9,27.4c1.2,1.7,1.4,3.9.5,5.8s-2.6,3.2-4.7,3.5l-5,.7,12,16.6c1.9,2.7,1.3,6.4-1.4,8.4-1.1.8-2.3,1.1-3.5,1.1-1.9,0-3.7-.9-4.9-2.5l-17.8-24.8c-1.2-1.7-1.5-3.9-.6-5.9s2.6-3.3,4.7-3.6l5.2-.7-13.3-19.4ZM353.3,73c0-3.5,2.9-6.4,6.4-6.4h68c3.5,0,6.4,2.9,6.4,6.4s-2.9,6.4-6.4,6.4h-10.2c2,3,3.4,6.4,4.1,10.4h3.6c3.5,0,6.4,2.9,6.4,6.4s-2.9,6.4-6.4,6.4h-3.6c-.7,4.3-2.2,8.1-4.4,11.4-3.3,4.9-7.9,8.4-13.2,10.8-7,3.2-15.4,4.8-24.5,5.5,9.7,10.3,21.4,19.2,34.9,26.3,3.1,1.6,4.3,5.5,2.7,8.6-1.6,3.1-5.5,4.3-8.6,2.7-19.2-10.1-35.2-23.5-47.4-39.6-1.5-1.9-1.7-4.5-.6-6.7,1.1-2.2,3.3-3.5,5.7-3.5,13.7,0,24.9-1.2,32.5-4.7,3.7-1.7,6.3-3.8,8-6.3.8-1.2,1.5-2.7,2-4.4h-46.9c-3.5,0-6.4-2.9-6.4-6.4s2.9-6.4,6.4-6.4h46.8c-1-3.1-2.8-5.2-4.7-6.7-3.4-2.6-8-3.8-12.6-3.8h-31.5c-3.5,0-6.4-2.9-6.4-6.4ZM186.5,107.8c-.8-3.2,1.1-6.5,4.3-7.3,3.2-.8,6.5,1.1,7.3,4.3l8.3,32.2c.5,2,0,4.2-1.5,5.7s-3.6,2.1-5.6,1.7l-4.9-1.1,5.5,19.7c.9,3.2-1,6.5-4.2,7.4-1.3.4-2.5.3-3.7-.1-1.8-.6-3.2-2.1-3.7-4l-8.2-29.4c-.6-2,0-4.2,1.4-5.7s3.6-2.2,5.6-1.7l5.1,1.1-5.9-22.8Z"></path>
</svg>
